<svg width="36" height="36" viewBox="0 0 36 36" fill="none" xmlns="http://www.w3.org/2000/svg">
<circle cx="18" cy="18" r="18" fill="#4849FF"/>
<path d="M22.6777 20.9299C23.6661 19.5841 24.25 17.9227 24.25 16.125C24.25 11.6377 20.6123 8 16.125 8C11.6377 8 8 11.6377 8 16.125C8 20.6123 11.6377 24.25 16.125 24.25C17.9232 24.25 19.585 23.6658 20.9309 22.6769L20.9299 22.6777C20.9667 22.7277 21.0078 22.7755 21.053 22.8208L25.8661 27.6339C26.3543 28.122 27.1457 28.122 27.6339 27.6339C28.122 27.1457 28.122 26.3543 27.6339 25.8661L22.8208 21.053C22.7755 21.0078 22.7277 20.9667 22.6777 20.9299ZM23 16.125C23 19.922 19.922 23 16.125 23C12.328 23 9.25 19.922 9.25 16.125C9.25 12.328 12.328 9.25 16.125 9.25C19.922 9.25 23 12.328 23 16.125Z" fill="white"/>
</svg>
