<svg width="67" height="24" viewBox="0 0 67 24" fill="none" xmlns="http://www.w3.org/2000/svg">
<path d="M6.99219 5.875C6.99219 8.14062 8.4082 10.3086 11.1328 11.1875L9.96094 12.9258C8.03711 12.252 6.67969 10.9141 5.92773 9.21484C5.14648 11.0703 3.71094 12.5156 1.67969 13.2578L0.507812 11.5195C3.37891 10.5723 4.80469 8.25781 4.80469 5.73828V4H6.99219V5.875ZM3.33984 16.1484V14.4297H15.3711V20.7383H13.2031V16.1484H3.33984ZM9.6875 8.29688V6.51953H13.2031V3.08203H15.3711V13.5703H13.2031V8.29688H9.6875ZM24.4531 5.60156C24.4434 7.92578 25.9082 10.1133 28.7109 10.9922L27.6367 12.7109C25.6055 12.0371 24.1504 10.6895 23.3496 8.96094C22.5586 10.8164 21.0742 12.291 18.9844 13.0039L17.8906 11.3047C20.7422 10.3379 22.2168 7.99414 22.207 5.60156V3.92188H24.4531V5.60156ZM20.5273 16.1875V14.4492H32.5781V20.7383H30.3906V16.1875H20.5273ZM30.3906 13.6484V3.08203H32.5781V13.6484H30.3906Z" fill="#4849FF"/>
<path d="M52.0004 0.417456C52.2738 0.750653 52.367 1.25282 52.121 1.70419C51.2802 3.24711 50.8023 5.01453 50.8023 6.89529C50.8023 12.9259 55.7204 17.809 61.7802 17.809C62.5698 17.809 63.3391 17.7263 64.0801 17.5693C64.5868 17.462 65.0476 17.691 65.2947 18.0429C65.5495 18.406 65.603 18.9477 65.2478 19.3837C62.955 22.1978 59.4472 24 55.5154 24C48.6001 24 43 18.4295 43 11.565C43 6.3987 46.1712 1.96795 50.6853 0.0901317C51.2069 -0.126827 51.7184 0.0736398 52.0004 0.417456ZM50.287 1.96596C46.8625 3.81343 44.5374 7.41914 44.5374 11.565C44.5374 17.5957 49.4556 22.4788 55.5154 22.4788C58.5693 22.4788 61.3324 21.2397 63.3237 19.2366C62.8177 19.2984 62.3026 19.3303 61.7802 19.3303C54.865 19.3303 49.2649 13.7598 49.2649 6.89529C49.2649 5.14522 49.6292 3.47809 50.287 1.96596Z" fill="#4849FF"/>
</svg>
