<svg width="67" height="24" viewBox="0 0 67 24" fill="none" xmlns="http://www.w3.org/2000/svg">
<path d="M16.6797 11.1875V12.9453H9.6875V14.4297C12.8418 14.6348 14.7168 15.7285 14.7266 17.5547C14.7168 19.5859 12.4121 20.7188 8.61328 20.7188C4.75586 20.7188 2.46094 19.5859 2.46094 17.5547C2.46094 15.7285 4.33594 14.625 7.53906 14.4199V12.9453H0.585938V11.1875H16.6797ZM1.36719 8.66797C4.60938 8.36523 6.72852 7.04688 7.08984 5.60156H2.05078V3.86328H15.2344V5.60156H10.1465C10.498 7.05664 12.5977 8.36523 15.918 8.66797L15.1562 10.3867C11.9434 10.0547 9.57031 8.77539 8.61328 6.98828C7.65625 8.77539 5.3125 10.0547 2.10938 10.3867L1.36719 8.66797ZM4.66797 17.5547C4.6582 18.5312 6.04492 19.0684 8.61328 19.0586C11.1426 19.0684 12.5391 18.5312 12.5586 17.5547C12.5391 16.5781 11.1426 16.0605 8.61328 16.0508C6.04492 16.0605 4.6582 16.5781 4.66797 17.5547ZM24.4531 5.60156C24.4434 7.92578 25.9082 10.1133 28.7109 10.9922L27.6367 12.7109C25.6055 12.0371 24.1504 10.6895 23.3496 8.96094C22.5586 10.8164 21.0742 12.291 18.9844 13.0039L17.8906 11.3047C20.7422 10.3379 22.2168 7.99414 22.207 5.60156V3.92188H24.4531V5.60156ZM20.5273 16.1875V14.4492H32.5781V20.7383H30.3906V16.1875H20.5273ZM30.3906 13.6484V3.08203H32.5781V13.6484H30.3906Z" fill="#4849FF"/>
<path d="M55 16.5C52.5147 16.5 50.5 14.4853 50.5 12C50.5 9.51472 52.5147 7.5 55 7.5C57.4853 7.5 59.5 9.51472 59.5 12C59.5 14.4853 57.4853 16.5 55 16.5ZM55 18C58.3137 18 61 15.3137 61 12C61 8.68629 58.3137 6 55 6C51.6863 6 49 8.68629 49 12C49 15.3137 51.6863 18 55 18Z" fill="#4849FF"/>
<path d="M55 0C55.4142 0 55.75 0.335786 55.75 0.75V3.75C55.75 4.16421 55.4142 4.5 55 4.5C54.5858 4.5 54.25 4.16421 54.25 3.75V0.75C54.25 0.335786 54.5858 0 55 0Z" fill="#4849FF"/>
<path d="M55 19.5C55.4142 19.5 55.75 19.8358 55.75 20.25V23.25C55.75 23.6642 55.4142 24 55 24C54.5858 24 54.25 23.6642 54.25 23.25V20.25C54.25 19.8358 54.5858 19.5 55 19.5Z" fill="#4849FF"/>
<path d="M67 12C67 12.4142 66.6642 12.75 66.25 12.75H63.25C62.8358 12.75 62.5 12.4142 62.5 12C62.5 11.5858 62.8358 11.25 63.25 11.25H66.25C66.6642 11.25 67 11.5858 67 12Z" fill="#4849FF"/>
<path d="M47.5 12C47.5 12.4142 47.1642 12.75 46.75 12.75H43.75C43.3358 12.75 43 12.4142 43 12C43 11.5858 43.3358 11.25 43.75 11.25H46.75C47.1642 11.25 47.5 11.5858 47.5 12Z" fill="#4849FF"/>
<path d="M63.4853 3.51477C63.7782 3.80766 63.7782 4.28253 63.4853 4.57543L61.364 6.69675C61.0711 6.98964 60.5962 6.98964 60.3033 6.69675C60.0104 6.40385 60.0104 5.92898 60.3033 5.63609L62.4246 3.51477C62.7175 3.22187 63.1924 3.22187 63.4853 3.51477Z" fill="#4849FF"/>
<path d="M49.6967 17.3033C49.9896 17.5962 49.9896 18.0711 49.6967 18.364L47.5754 20.4853C47.2825 20.7782 46.8076 20.7782 46.5147 20.4853C46.2218 20.1924 46.2218 19.7176 46.5147 19.4247L48.636 17.3033C48.9289 17.0105 49.4038 17.0105 49.6967 17.3033Z" fill="#4849FF"/>
<path d="M63.4853 20.4853C63.1924 20.7782 62.7175 20.7782 62.4246 20.4853L60.3033 18.364C60.0104 18.0711 60.0104 17.5963 60.3033 17.3034C60.5962 17.0105 61.0711 17.0105 61.364 17.3034L63.4853 19.4247C63.7782 19.7176 63.7782 20.1925 63.4853 20.4853Z" fill="#4849FF"/>
<path d="M49.6967 6.69676C49.4038 6.98966 48.9289 6.98966 48.636 6.69676L46.5147 4.57544C46.2218 4.28255 46.2218 3.80768 46.5147 3.51478C46.8076 3.22189 47.2825 3.22189 47.5754 3.51478L49.6967 5.6361C49.9896 5.929 49.9896 6.40387 49.6967 6.69676Z" fill="#4849FF"/>
</svg>
