<svg width="24" height="24" viewBox="0 0 24 24" fill="none" xmlns="http://www.w3.org/2000/svg">
<g id="arrow-repeat">
<g id="Vector">
<path d="M17.4952 10.3333H23.6105C23.9401 10.3333 24.1202 10.7454 23.9091 11.0167L20.8515 14.9492C20.6961 15.1491 20.4096 15.1491 20.2542 14.9492L17.1966 11.0167C16.9856 10.7454 17.1656 10.3333 17.4952 10.3333Z" fill="#4849FF"/>
<path d="M0.38951 13.6667H6.50477C6.83438 13.6667 7.01444 13.2546 6.80343 12.9833L3.7458 9.05078C3.59037 8.85088 3.30391 8.85088 3.14848 9.05078L0.0908506 12.9833C-0.120161 13.2546 0.0598991 13.6667 0.38951 13.6667Z" fill="#4849FF"/>
<path fill-rule="evenodd" clip-rule="evenodd" d="M12 3.66667C9.58577 3.66667 7.42899 4.84494 6.00162 6.69731C5.72818 7.05218 5.2381 7.10227 4.90699 6.80921C4.57589 6.51614 4.52915 5.99088 4.8026 5.63602C6.51271 3.41671 9.10232 2 12 2C16.5745 2 20.3787 5.52751 21.1766 10.1828C21.1852 10.2328 21.1934 10.283 21.2013 10.3333H19.6199C18.8999 6.52963 15.7611 3.66667 12 3.66667ZM4.38005 13.6667C5.10007 17.4704 8.23888 20.3333 12 20.3333C14.4142 20.3333 16.571 19.1551 17.9984 17.3027C18.2718 16.9478 18.7619 16.8977 19.093 17.1908C19.4241 17.4839 19.4708 18.0091 19.1974 18.364C17.4873 20.5833 14.8977 22 12 22C7.42546 22 3.62128 18.4725 2.82343 13.8172C2.81485 13.7672 2.80662 13.717 2.79874 13.6667H4.38005Z" fill="#4849FF"/>
</g>
</g>
</svg>
