<svg width="24" height="24" viewBox="0 0 24 24" fill="none" xmlns="http://www.w3.org/2000/svg">
<g id="bell">
<g id="Vector">
<path d="M12 22C13.4202 22 14.5714 20.8807 14.5714 19.5H9.42857C9.42857 20.8807 10.5798 22 12 22Z" fill="#26282B"/>
<path d="M12 4.39781L10.975 4.59906C8.62567 5.06036 6.85717 7.08079 6.85717 9.5C6.85717 10.2848 6.68442 12.2466 6.2672 14.1777C6.06008 15.1364 5.78298 16.1345 5.41469 17H18.5853C18.217 16.1345 17.9399 15.1364 17.7328 14.1777C17.3156 12.2466 17.1429 10.2848 17.1429 9.5C17.1429 7.08077 15.3744 5.06034 13.025 4.59906L12 4.39781ZM19.9962 17C20.2142 17.4247 19.8568 18.25 19.3794 18.25H4.62057C4.14319 18.25 3.78577 17.4247 4.00376 17C5.159 14.7492 5.57146 10.599 5.57146 9.5C5.57146 6.47417 7.78312 3.95056 10.7205 3.3738C10.7164 3.33308 10.7143 3.29178 10.7143 3.25C10.7143 2.55964 11.2899 2 12 2C12.7101 2 13.2857 2.55964 13.2857 3.25C13.2857 3.29177 13.2836 3.33307 13.2795 3.37379C16.2169 3.95053 18.4286 6.47415 18.4286 9.5C18.4286 10.599 18.841 14.7492 19.9962 17Z" fill="#26282B"/>
</g>
</g>
</svg>
