<svg width="24" height="24" viewBox="0 0 24 24" fill="none" xmlns="http://www.w3.org/2000/svg">
<g id="book">
<path id="v2 (Stroke)" d="M1.5 4.24121C2.82747 3.68655 4.73085 3.08901 6.58152 2.90235C8.57698 2.70108 10.2696 2.99698 11.25 4.02991V18.6487C9.84766 17.8536 8.07097 17.7445 6.43098 17.9099C4.66039 18.0885 2.87656 18.6016 1.5 19.1264V4.24121ZM12.75 4.02991C13.7304 2.99698 15.423 2.70108 17.4185 2.90235C19.2692 3.08901 21.1725 3.68655 22.5 4.24121V19.1264C21.1234 18.6016 19.3396 18.0885 17.569 17.9099C15.929 17.7445 14.1523 17.8536 12.75 18.6487V4.02991ZM12 2.67444C10.5226 1.40455 8.38025 1.21331 6.43098 1.40992C4.15983 1.639 1.86688 2.41837 0.439648 3.06711C0.171902 3.18881 0 3.45578 0 3.74988V20.2499C0 20.5049 0.129564 20.7424 0.343961 20.8805C0.558357 21.0185 0.82821 21.0382 1.06035 20.9327C2.38312 20.3314 4.51517 19.6108 6.58152 19.4024C8.69348 19.1893 10.4662 19.5332 11.4143 20.7184C11.5567 20.8963 11.7722 20.9999 12 20.9999C12.2278 20.9999 12.4433 20.8963 12.5857 20.7184C13.5338 19.5332 15.3065 19.1893 17.4185 19.4024C19.4848 19.6108 21.6169 20.3314 22.9396 20.9327C23.1718 21.0382 23.4416 21.0185 23.656 20.8805C23.8704 20.7424 24 20.5049 24 20.2499V3.74988C24 3.45578 23.8281 3.18881 23.5604 3.06711C22.1331 2.41837 19.8402 1.639 17.569 1.40992C15.6198 1.21331 13.4774 1.40455 12 2.67444Z" fill="white"/>
</g>
</svg>
