<svg width="24" height="24" viewBox="0 0 24 24" fill="none" xmlns="http://www.w3.org/2000/svg">
<g id="envelope-open">
<path id="v3 (Stroke)" d="M12.6471 2.55622C12.2426 2.3378 11.7574 2.3378 11.3529 2.55622L3.10294 7.01191C2.65488 7.25391 2.375 7.72627 2.375 8.24051V9.37797L10.2812 14.1818L12 13.1375L13.7188 14.1818L21.625 9.37797V8.24051C21.625 7.72627 21.3451 7.25391 20.8971 7.01191L12.6471 2.55622ZM21.625 11.0018L15.055 14.9937L21.625 18.9856V11.0018ZM21.5772 20.5803L12 14.7613L2.42277 20.5803C2.58119 21.1722 3.11539 21.6076 3.75 21.6076H20.25C20.8846 21.6076 21.4188 21.1722 21.5772 20.5803ZM2.375 18.9856L8.94499 14.9937L2.375 11.0018V18.9856ZM10.7059 1.32762C11.5147 0.890792 12.4853 0.890792 13.2941 1.32762L21.5441 5.78332C22.4402 6.2673 23 7.21204 23 8.24051V20.2152C23 21.7532 21.7688 23 20.25 23H3.75C2.23122 23 1 21.7532 1 20.2152V8.24051C1 7.21204 1.55976 6.2673 2.45588 5.78332L10.7059 1.32762Z" fill="#9EA4AA"/>
</g>
</svg>
