<svg width="24" height="24" viewBox="0 0 24 24" fill="none" xmlns="http://www.w3.org/2000/svg">
<g id="envelope">
<path id="Rectangle 394 (Stroke)" d="M1 6.66667C1 5.19391 2.23122 4 3.75 4H20.25C21.7688 4 23 5.19391 23 6.66667V17.3333C23 18.8061 21.7688 20 20.25 20H3.75C2.23122 20 1 18.8061 1 17.3333V6.66667ZM3.75 5.33333C2.99061 5.33333 2.375 5.93029 2.375 6.66667V6.95587L12 12.5559L21.625 6.95587V6.66667C21.625 5.93029 21.0094 5.33333 20.25 5.33333H3.75ZM21.625 8.51079L15.1514 12.2773L21.625 16.1403V8.51079ZM21.5786 17.6782L13.823 13.0501L12 14.1108L10.177 13.0501L2.42143 17.6782C2.57815 18.2474 3.11358 18.6667 3.75 18.6667H20.25C20.8864 18.6667 21.4219 18.2474 21.5786 17.6782ZM2.375 16.1403L8.8486 12.2773L2.375 8.51079V16.1403Z" fill="#4849FF"/>
</g>
</svg>
