<svg width="24" height="24" viewBox="0 0 24 24" fill="none" xmlns="http://www.w3.org/2000/svg">
<g id="file-earmark-text">
<g id="Union">
<path d="M8.66667 10.625C8.29848 10.625 8 10.9328 8 11.3125C8 11.6922 8.29848 12 8.66667 12H15.3333C15.7015 12 16 11.6922 16 11.3125C16 10.9328 15.7015 10.625 15.3333 10.625H8.66667Z" fill="#4849FF"/>
<path d="M8 14.0625C8 13.6828 8.29848 13.375 8.66667 13.375H15.3333C15.7015 13.375 16 13.6828 16 14.0625C16 14.4422 15.7015 14.75 15.3333 14.75H8.66667C8.29848 14.75 8 14.4422 8 14.0625Z" fill="#4849FF"/>
<path d="M8 16.8125C8 16.4328 8.29848 16.125 8.66667 16.125H11.3333C11.7015 16.125 12 16.4328 12 16.8125C12 17.1922 11.7015 17.5 11.3333 17.5H8.66667C8.29848 17.5 8 17.1922 8 16.8125Z" fill="#4849FF"/>
<path d="M14 1H6.66667C5.19391 1 4 2.23122 4 3.75V20.25C4 21.7688 5.19391 23 6.66667 23H17.3333C18.8061 23 20 21.7688 20 20.25V7.1875L14 1ZM14 2.375V5.125C14 6.26409 14.8954 7.1875 16 7.1875H18.6667V20.25C18.6667 21.0094 18.0697 21.625 17.3333 21.625H6.66667C5.93029 21.625 5.33333 21.0094 5.33333 20.25V3.75C5.33333 2.99061 5.93029 2.375 6.66667 2.375H14Z" fill="#4849FF"/>
</g>
</g>
</svg>
