<svg width="228" height="23" viewBox="0 0 228 23" fill="none" xmlns="http://www.w3.org/2000/svg">
<path d="M9.28125 3.05469V5.42188H3.44531V8.63281H8.85938V10.9297H3.44531V14.7734C5.84766 14.75 7.60547 14.668 9.67969 14.375L9.89062 16.8125C7.42969 17.1992 5.33203 17.2812 2.08594 17.2812H0.585938V3.05469H9.28125ZM10.8281 21.1719V1.13281H13.6406V9.10156H15.4922V0.828125H18.3516V22.1562H15.4922V11.4922H13.6406V21.1719H10.8281ZM26.0391 1.17969V2.67969H34.5938V1.17969H37.5703V8.35156H23.0859V1.17969H26.0391ZM20.6016 11.8438V9.52344H40.0547V11.8438H20.6016ZM22.8516 15.2891V13.1094H37.6875V18.5H25.8047V19.7656H38.25V22.0156H22.875V16.4141H34.7344V15.2891H22.8516ZM26.0391 6.125H34.5938V4.83594H26.0391V6.125ZM59.1797 0.828125V15.3828H56.2031V0.828125H59.1797ZM42.4453 4.53125V2.14062H52.3359V8.70312H45.3984V10.8125C49.2188 10.7773 51.6328 10.625 54.3984 10.1562L54.7266 12.5234C51.6211 13.0977 48.8555 13.1914 44.3438 13.2031H42.4688V6.45312H49.3594V4.53125H42.4453ZM43.5703 19.7891C48.1172 19.2266 50.3672 16.9883 50.3672 14.6797V14.3047H53.5078V14.6797C53.4844 16.9648 55.7109 19.2266 60.2812 19.7891L59.2031 22.0859C55.6992 21.582 53.2031 20.1523 51.9258 18.1367C50.6367 20.1523 48.1523 21.6055 44.6953 22.0859L43.5703 19.7891ZM87.0703 11.2109V13.6016H67.6172V11.2109H75.8438V8.375H78.7969V11.2109H87.0703ZM68.625 7.32031C73.3359 6.72266 75.7852 4.28516 75.7969 1.88281V1.17969H78.8438V1.88281C78.832 4.37891 81.2227 6.72266 86.0391 7.32031L84.8906 9.64062C81.2812 9.10156 78.6328 7.58984 77.2852 5.45703C75.9258 7.57812 73.2773 9.11328 69.6797 9.64062L68.625 7.32031ZM69.7734 17.4219V15.1016H84.7031V22.1562H81.7266V17.4219H69.7734ZM112.031 9.99219V12.3594H104.297V2.60938H111.867V5H107.297V9.99219H112.031ZM93.8906 19.6719V17.2578H102.094V13.2969H105.047V17.2578H113.414V19.6719H93.8906ZM95.3906 12.3594V2.60938H102.961V5H98.3906V9.93359C100.066 9.88672 101.508 9.75781 103.102 9.45312L103.312 11.8906C101.145 12.3359 99.293 12.3711 96.75 12.3594H95.3906ZM136.992 0.828125V8.75H140.133V11.1875H136.992V22.2031H133.992V0.828125H136.992ZM121.008 17.0234V2.79688H131.016V5.21094H123.984V14.5625C127.078 14.5391 129.633 14.375 132.469 13.8828L132.797 16.3906C129.48 16.9531 126.574 17.0352 122.812 17.0234H121.008ZM160.406 12.3594V14.75H140.883V12.3594H160.406ZM143.273 3.61719V1.32031H158.039V7.20312H146.297V8.72656H158.438V10.9766H143.32V5.07031H155.039V3.61719H143.273ZM143.344 21.7812V15.9219H146.344V19.3906H158.508V21.7812H143.344ZM184.102 0.828125V5.84375H186.984V8.28125H184.102V13.2031H181.102V0.828125H184.102ZM167.039 11.2578C171.738 10.0156 174.422 7.57812 174.891 4.625H168.047V2.23438H178.148C178.16 7.91797 174.586 11.9023 168.234 13.6719L167.039 11.2578ZM169.922 17.8203C169.898 15.1484 172.805 13.4609 177.141 13.4609C181.488 13.4609 184.324 15.1484 184.336 17.8203C184.324 20.5156 181.488 22.1797 177.141 22.1797C172.805 22.1797 169.898 20.5156 169.922 17.8203ZM172.875 17.8203C172.863 19.1094 174.457 19.8477 177.141 19.8359C179.789 19.8477 181.383 19.1094 181.383 17.8203C181.383 16.5078 179.789 15.7812 177.141 15.7812C174.457 15.7812 172.863 16.5078 172.875 17.8203ZM194.836 2.25781C198.223 2.24609 200.73 4.42578 200.742 7.48438C200.73 10.5547 198.223 12.7227 194.836 12.7344C191.473 12.7227 188.895 10.5547 188.906 7.48438C188.895 4.42578 191.473 2.24609 194.836 2.25781ZM188.016 15.4062C191.824 15.418 197.098 15.3711 201.656 14.7266L201.891 16.8828C197.156 17.8086 192.094 17.8438 188.367 17.8438L188.016 15.4062ZM191.883 7.48438C191.871 9.17188 193.148 10.1445 194.836 10.1328C196.535 10.1445 197.824 9.17188 197.836 7.48438C197.824 5.82031 196.535 4.83594 194.836 4.83594C193.148 4.83594 191.871 5.82031 191.883 7.48438ZM202.875 22.2031V0.828125H205.852V22.2031H202.875ZM226.5 0.828125V11.6328H223.523V0.828125H226.5ZM208.57 9.33594C212.133 8.26953 213.727 5.58594 213.727 2.9375V1.29688H216.844V2.9375C216.82 5.52734 218.367 8 221.859 9.00781L220.406 11.3047C217.957 10.6016 216.27 9.11328 215.297 7.21484C214.336 9.28906 212.59 10.918 210.047 11.6797L208.57 9.33594ZM212.203 14.8672V12.5469H226.523V18.3359H215.18V19.6484H227.109V22.0156H212.25V16.1094H223.547V14.8672H212.203Z" fill="#4849FF"/>
</svg>
