<svg width="18" height="18" viewBox="0 0 18 18" fill="none" xmlns="http://www.w3.org/2000/svg">
<g id="Frame 480" clip-path="url(#clip0_1374_2393)">
<path id="Vector" d="M17.3543 10.2003L16.8939 9.3973C16.5744 8.83959 15.8658 8.6484 15.3119 8.97016C14.758 9.29191 14.5682 10.0054 14.8877 10.5631L15.348 11.3661C16.0418 12.5766 15.6287 14.1304 14.4264 14.8299C13.2242 15.5284 11.6811 15.1125 10.9864 13.9019L10.3622 12.8825L12.926 8.70342L12.9537 8.65586C13.3705 7.89856 13.5558 7.10769 13.5558 6.08926V2.08641C13.5558 1.21066 12.8509 0.5 11.9803 0.5H6.02184C5.15212 0.5 4.44633 1.20973 4.44633 2.08641V6.08926C4.44633 7.10676 4.63158 7.89856 5.04838 8.65586L7.63997 12.8816L7.03236 13.8721L7.01476 13.9019C6.28953 15.1675 4.63621 15.5657 3.41358 14.7282C2.93843 14.4027 2.58646 13.9159 2.42159 13.3619C2.22153 12.6867 2.30489 11.9751 2.65315 11.367L3.11349 10.564C3.43303 10.0063 3.24316 9.29378 2.68927 8.97109C2.13539 8.64933 1.42775 8.84052 1.10727 9.39823L0.646938 10.2012C0.00413541 11.326 -0.167217 12.6373 0.167152 13.8935C0.50152 15.1488 1.30086 16.199 2.41881 16.849C3.17832 17.2902 4.00822 17.5 4.82701 17.5C6.48681 17.5 8.10308 16.6392 9.00152 15.1003C9.89997 16.6392 11.5162 17.5 13.176 17.5C13.9957 17.5 14.8257 17.2902 15.5842 16.849C17.8924 15.507 18.6862 12.5244 17.3533 10.2003H17.3543ZM9.00245 10.6638L7.13517 7.61971H10.8707L9.00338 10.6638H9.00245ZM11.2411 2.83158V5.28813H6.76283V2.83158H11.2411Z" fill="white" fill-opacity="0.7"/>
<path id="Vector_2" d="M9.00134 10.6641L7.64071 12.8819L8.99949 15.0829L10.362 12.8819L9.00134 10.6641Z" fill="white"/>
<path id="Vector_3" d="M2.11319 11.1441C2.75262 11.1441 3.27098 10.6221 3.27098 9.97829C3.27098 9.33444 2.75262 8.8125 2.11319 8.8125C1.47377 8.8125 0.955408 9.33444 0.955408 9.97829C0.955408 10.6221 1.47377 11.1441 2.11319 11.1441Z" fill="white"/>
<path id="Vector_4" d="M15.8879 11.1441C16.5273 11.1441 17.0456 10.6221 17.0456 9.97829C17.0456 9.33444 16.5273 8.8125 15.8879 8.8125C15.2484 8.8125 14.7301 9.33444 14.7301 9.97829C14.7301 10.6221 15.2484 11.1441 15.8879 11.1441Z" fill="white"/>
</g>
<defs>
<clipPath id="clip0_1374_2393">
<rect width="18" height="18" fill="white"/>
</clipPath>
</defs>
</svg>
