<svg width="164" height="173" viewBox="0 0 164 173" fill="none" xmlns="http://www.w3.org/2000/svg">
<circle cx="82" cy="65" r="65" fill="#EDEDFF"/>
<circle cx="82.5" cy="65.5" r="47.5" fill="white"/>
<path d="M83 89V69" stroke="#EDEDFF" stroke-width="16" stroke-linecap="round" stroke-linejoin="round"/>
<circle cx="83" cy="46" r="8" fill="#EDEDFF"/>
<path d="M12.1719 159.641V161.234C12.1719 163.125 12.1719 165.07 11.6562 168.047L9.89062 167.891C10.4375 165.117 10.4375 163.07 10.4375 161.234V161.047H2.29688V159.641H12.1719ZM0.9375 170.453V169.031H13.8125V170.453H0.9375ZM27.6562 165.156V166.531H22.0469V167.938H20.3281V166.531H14.75V165.156H27.6562ZM16.3438 159.828V158.516H26.0625V162H18.1094V163H26.3438V164.297H16.3906V160.766H24.3281V159.828H16.3438ZM16.4062 172.219V167.25H18.125V168.531H24.3594V167.25H26.0781V172.219H16.4062ZM18.125 170.891H24.3594V169.828H18.125V170.891ZM40.3438 158.266V172.406H38.5938V158.266H40.3438ZM29.0469 164.281C29.0391 161.234 30.5938 159.297 32.7344 159.297C34.8516 159.297 36.4141 161.234 36.4219 164.281C36.4141 167.352 34.8516 169.281 32.7344 169.281C30.5938 169.281 29.0391 167.352 29.0469 164.281ZM30.7188 164.281C30.7188 166.453 31.5391 167.711 32.7344 167.719C33.9219 167.711 34.7344 166.453 34.7344 164.281C34.7344 162.125 33.9219 160.859 32.7344 160.859C31.5391 160.859 30.7188 162.125 30.7188 164.281ZM57.9375 158.906V160.297H53.8359C53.9922 161.656 55.7266 162.938 58.4531 163.25L57.7969 164.641C55.2656 164.312 53.3984 163.195 52.6406 161.664C51.8828 163.188 50.0312 164.312 47.5 164.641L46.8594 163.25C49.5859 162.938 51.2891 161.648 51.4531 160.297H47.3906V158.906H57.9375ZM46.2188 167.125V165.703H51.7812V163.625H53.5V165.703H59.0938V167.125H46.2188ZM47.8125 172.109V168.078H49.5469V170.703H57.6406V172.109H47.8125ZM72.2969 158.266V172.391H70.6406V165.234H69.1875V171.703H67.5469V158.516H69.1875V163.797H70.6406V158.266H72.2969ZM59.8125 168.281C61.9062 167.094 62.75 164.633 62.75 161.875V161.203H60.2344V159.812H66.75V161.203H64.4375V161.875C64.4375 164.383 65.2812 166.703 67.375 167.781L66.3594 169.109C65.0156 168.383 64.1328 167.141 63.6328 165.609C63.1562 167.367 62.2734 168.781 60.875 169.609L59.8125 168.281ZM84.9375 158.266V163.891H87.1094V165.328H84.9375V172.391H83.2188V158.266H84.9375ZM73.7969 161.828V160.438H77.1406V158.469H78.875V160.438H82.125V161.828H73.7969ZM74.4531 166.078C74.4375 164.125 75.9531 162.742 78.0156 162.75C80.0469 162.742 81.5547 164.125 81.5625 166.078C81.5547 168.023 80.0469 169.391 78.0156 169.391C75.9531 169.391 74.4375 168.023 74.4531 166.078ZM76.1094 166.078C76.1016 167.227 76.9062 167.961 78.0156 167.953C79.1016 167.961 79.8906 167.227 79.9062 166.078C79.8906 164.93 79.1016 164.172 78.0156 164.172C76.9062 164.172 76.1016 164.93 76.1094 166.078ZM93.0312 162.281C93.0312 164.594 94.3906 167.031 96.6719 167.984L95.7188 169.359C94.0469 168.633 92.8281 167.156 92.1797 165.359C91.5312 167.297 90.2891 168.922 88.6406 169.703L87.6406 168.344C89.8672 167.312 91.2578 164.68 91.2656 162.281V161.094H88.1562V159.656H96.125V161.094H93.0312V162.281ZM97.7031 172.391V158.266H99.4531V172.391H97.7031ZM109.234 159C111.391 158.992 112.977 160.359 112.984 162.266C112.977 164.203 111.391 165.555 109.234 165.562C107.094 165.555 105.477 164.203 105.484 162.266C105.477 160.359 107.094 158.992 109.234 159ZM106.672 172V166.688H108.375V170.586C109.18 170.539 110.016 170.422 110.828 170.156L111.078 171.516C109.828 171.953 108.625 172.008 107.422 172H106.672ZM107.188 162.266C107.172 163.391 108.062 164.141 109.234 164.141C110.406 164.141 111.289 163.391 111.297 162.266C111.289 161.164 110.406 160.43 109.234 160.422C108.062 160.43 107.172 161.164 107.188 162.266ZM110.594 168.016V166.719H113.312V165.641H115.016V166.719H117.703V168.016H110.594ZM111.453 170.391C111.438 169.164 112.539 168.391 114.141 168.391C115.727 168.391 116.836 169.164 116.844 170.391C116.836 171.609 115.727 172.375 114.141 172.375C112.531 172.375 111.438 171.609 111.453 170.391ZM113 170.391C112.992 170.891 113.477 171.172 114.141 171.172C114.805 171.172 115.281 170.891 115.281 170.391C115.281 169.898 114.805 169.609 114.141 169.594C113.477 169.609 112.992 169.898 113 170.391ZM114.734 165.266V158.266H116.469V161.281H118.438V162.719H116.469V165.266H114.734ZM122.422 166.734V168.078H128.641V166.734H130.375V172.219H120.703V166.734H122.422ZM119.156 165.938V164.516H132.031V165.938H119.156ZM119.812 162.406C122.766 162.039 124.695 160.523 124.703 158.953V158.422H126.484V158.953C126.484 160.477 128.422 162.062 131.344 162.406L130.734 163.781C128.367 163.461 126.5 162.406 125.594 160.977C124.68 162.414 122.805 163.461 120.453 163.781L119.812 162.406ZM122.422 170.844H128.641V169.406H122.422V170.844ZM144.766 158.266V172.391H143.047V158.266H144.766ZM133.797 168.844V159.641H135.516V167.359C137.492 167.328 139.602 167.156 141.781 166.719L142 168.172C139.516 168.688 137.211 168.852 135.016 168.844H133.797ZM157.875 158.266V163.625H160.047V165.047H157.875V172.406H156.141V158.266H157.875ZM147.391 168.953V159.609H154V161.016H149.125V167.5C151.32 167.492 153.062 167.383 155 167.047L155.203 168.516C153.008 168.891 151.109 168.953 148.562 168.953H147.391ZM162.359 171.125C161.688 171.125 161.133 170.578 161.141 169.906C161.133 169.25 161.688 168.711 162.359 168.703C163.008 168.711 163.562 169.25 163.562 169.906C163.562 170.578 163.008 171.125 162.359 171.125Z" fill="#26282B"/>
</svg>
