<svg width="28" height="28" viewBox="0 0 28 28" fill="none" xmlns="http://www.w3.org/2000/svg">
<rect width="28" height="28" rx="4" fill="#4849FF"/>
<g clip-path="url(#clip0_0_1)">
<path d="M22.3542 15.2001L21.8938 14.3971C21.5743 13.8393 20.8657 13.6482 20.3118 13.9699C19.7579 14.2917 19.5681 15.0051 19.8876 15.5628L20.348 16.3658C21.0417 17.5764 20.6286 19.1302 19.4264 19.8296C18.2241 20.5282 16.681 20.1122 15.9863 18.9017L15.3621 17.8823L17.9259 13.7032L17.9537 13.6556C18.3705 12.8983 18.5557 12.1074 18.5557 11.089V7.08616C18.5557 6.21042 17.8508 5.49976 16.9802 5.49976H11.0218C10.152 5.49976 9.44624 6.20949 9.44624 7.08616V11.089C9.44624 12.1065 9.63149 12.8983 10.0483 13.6556L12.6399 17.8814L12.0323 18.8718L12.0147 18.9017C11.2894 20.1672 9.63612 20.5655 8.4135 19.728C7.93834 19.4025 7.58638 18.9157 7.42151 18.3617C7.22144 17.6864 7.3048 16.9748 7.65306 16.3668L8.1134 15.5638C8.43295 15.0061 8.24307 14.2935 7.68919 13.9708C7.1353 13.6491 6.42766 13.8403 6.10719 14.398L5.64685 15.201C5.00405 16.3257 4.8327 17.637 5.16707 18.8933C5.50143 20.1486 6.30077 21.1987 7.41873 21.8488C8.17824 22.2899 9.00814 22.4998 9.82692 22.4998C11.4867 22.4998 13.103 21.6389 14.0014 20.1001C14.8999 21.6389 16.5161 22.4998 18.176 22.4998C18.9957 22.4998 19.8256 22.2899 20.5841 21.8488C22.8923 20.5067 23.6861 17.5242 22.3532 15.2001H22.3542ZM14.0024 15.6636L12.1351 12.6195H15.8706L14.0033 15.6636H14.0024ZM16.2411 7.83133V10.2879H11.7627V7.83133H16.2411Z" fill="white" fill-opacity="0.7"/>
<path d="M14.0013 15.6636L12.6406 17.8814L13.9994 20.0824L15.3619 17.8814L14.0013 15.6636Z" fill="white"/>
<path d="M7.11286 16.1439C7.75229 16.1439 8.27065 15.622 8.27065 14.9781C8.27065 14.3343 7.75229 13.8123 7.11286 13.8123C6.47344 13.8123 5.95508 14.3343 5.95508 14.9781C5.95508 15.622 6.47344 16.1439 7.11286 16.1439Z" fill="white"/>
<path d="M20.8883 16.1439C21.5277 16.1439 22.046 15.622 22.046 14.9781C22.046 14.3343 21.5277 13.8123 20.8883 13.8123C20.2488 13.8123 19.7305 14.3343 19.7305 14.9781C19.7305 15.622 20.2488 16.1439 20.8883 16.1439Z" fill="white"/>
</g>
<defs>
<clipPath id="clip0_0_1">
<rect width="18" height="18" fill="white" transform="translate(5 4.99976)"/>
</clipPath>
</defs>
</svg>
