<svg width="48" height="48" viewBox="0 0 48 48" fill="none" xmlns="http://www.w3.org/2000/svg">
<g id="person-circle">
<g id="Union">
<path d="M34.5 17C34.5 22.799 29.799 27.5 24 27.5C18.201 27.5 13.5 22.799 13.5 17C13.5 11.201 18.201 6.5 24 6.5C29.799 6.5 34.5 11.201 34.5 17Z" fill="#C9CDD2"/>
<path fill-rule="evenodd" clip-rule="evenodd" d="M-4 24C-4 8.53603 8.53603 -4 24 -4C39.464 -4 52 8.53603 52 24C52 39.464 39.464 52 24 52C8.53603 52 -4 39.464 -4 24ZM24 -0.5C10.469 -0.5 -0.5 10.469 -0.5 24C-0.5 29.787 1.5064 35.1054 4.86151 39.2974C7.35025 35.2884 12.8162 31 24 31C35.1838 31 40.6498 35.2884 43.1385 39.2975C46.4936 35.1054 48.5 29.787 48.5 24C48.5 10.469 37.531 -0.5 24 -0.5Z" fill="#C9CDD2"/>
</g>
</g>
</svg>
