<svg width="14" height="14" viewBox="0 0 14 14" fill="none" xmlns="http://www.w3.org/2000/svg">
<g id="plus-lg">
<path id="plus (Stroke)" d="M7 0.142578C7.47338 0.142578 7.85714 0.526334 7.85714 0.999721V6.14258H13C13.4734 6.14258 13.8571 6.52633 13.8571 6.99972C13.8571 7.47311 13.4734 7.85686 13 7.85686H7.85714V12.9997C7.85714 13.4731 7.47338 13.8569 7 13.8569C6.52661 13.8569 6.14285 13.4731 6.14285 12.9997V7.85686H0.999996C0.526609 7.85686 0.142853 7.47311 0.142853 6.99972C0.142853 6.52633 0.526609 6.14258 0.999996 6.14258H6.14285V0.999721C6.14285 0.526334 6.52661 0.142578 7 0.142578Z" fill="#4849FF"/>
</g>
</svg>
