<svg width="24" height="24" viewBox="0 0 24 24" fill="none" xmlns="http://www.w3.org/2000/svg">
<g id="textarea-t">
<g id="Vector">
<path d="M2.25 3.75C2.25 2.50736 3.25736 1.5 4.5 1.5H19.5C20.7426 1.5 21.75 2.50736 21.75 3.75V9.09451C23.0439 9.42755 24 10.6021 24 12C24 13.3979 23.0439 14.5725 21.75 14.9055V20.25C21.75 21.4926 20.7426 22.5 19.5 22.5H4.5C3.25736 22.5 2.25 21.4926 2.25 20.25V14.9055C0.95608 14.5725 0 13.3979 0 12C0 10.6021 0.95608 9.42755 2.25 9.09451V3.75ZM3.75 9.09451C5.04392 9.42755 6 10.6021 6 12C6 13.3979 5.04392 14.5725 3.75 14.9055V20.25C3.75 20.6642 4.08579 21 4.5 21H19.5C19.9142 21 20.25 20.6642 20.25 20.25V14.9055C18.9561 14.5725 18 13.3979 18 12C18 10.6021 18.9561 9.42755 20.25 9.09451V3.75C20.25 3.33579 19.9142 3 19.5 3H4.5C4.08579 3 3.75 3.33579 3.75 3.75V9.09451ZM3 10.5C2.17157 10.5 1.5 11.1716 1.5 12C1.5 12.8284 2.17157 13.5 3 13.5C3.82843 13.5 4.5 12.8284 4.5 12C4.5 11.1716 3.82843 10.5 3 10.5ZM21 10.5C20.1716 10.5 19.5 11.1716 19.5 12C19.5 12.8284 20.1716 13.5 21 13.5C21.8284 13.5 22.5 12.8284 22.5 12C22.5 11.1716 21.8284 10.5 21 10.5Z" fill="#26282B"/>
<path d="M17.1507 6H6.84929L6.75 8.99169H7.3292C7.64362 7.11357 8.24764 6.82271 10.5892 6.74792L11.1022 6.7313V16.2465C11.1022 17.0526 10.9285 17.2438 9.53014 17.3684V18H14.4699V17.3684C13.0632 17.2438 12.8895 17.0526 12.8895 16.2465V6.7313L13.4108 6.74792C15.7524 6.82271 16.3564 7.11357 16.6708 8.99169H17.25L17.1507 6Z" fill="#26282B"/>
</g>
</g>
</svg>
