<svg width="228" height="39" viewBox="0 0 228 39" fill="none" xmlns="http://www.w3.org/2000/svg">
<path d="M3.89648 38.4824C1.58594 38.4824 0.214844 37.0859 0.214844 34.6484V4.6875C0.214844 2.25 1.63672 0.853516 4.07422 0.853516C5.64844 0.853516 6.71484 1.48828 7.88281 3.08789L23.7266 25.2285H23.9297V4.71289C23.9297 2.25 25.3008 0.853516 27.6113 0.853516C29.9219 0.853516 31.2676 2.25 31.2676 4.71289V34.75C31.2676 37.1367 29.9219 38.4824 27.5098 38.4824C25.8594 38.4824 24.8438 37.8984 23.6758 36.2734L7.78125 14.0059H7.55273V34.6484C7.55273 37.0859 6.18164 38.4824 3.89648 38.4824ZM49.2441 38.584C41.0176 38.584 35.7617 33.3027 35.7617 24.3652C35.7617 15.5547 41.0938 10.1973 49.2441 10.1973C57.3945 10.1973 62.7266 15.5293 62.7266 24.3652C62.7266 33.3281 57.4707 38.584 49.2441 38.584ZM49.2441 32.9219C52.875 32.9219 55.1855 29.8496 55.1855 24.3906C55.1855 18.9824 52.8496 15.8594 49.2441 15.8594C45.6387 15.8594 43.2773 18.9824 43.2773 24.3906C43.2773 29.8496 45.5879 32.9219 49.2441 32.9219ZM68.541 31.043V16.3672H67.1191C65.3672 16.3672 64.25 15.3008 64.25 13.5742C64.25 11.8477 65.3672 10.7812 67.1191 10.7812H68.541V7.75977C68.541 5.37305 69.9375 3.90039 72.248 3.90039C74.5586 3.90039 75.9551 5.37305 75.9551 7.75977V10.7812H78.5703C80.3223 10.7812 81.4141 11.873 81.4141 13.5742C81.4141 15.2754 80.3223 16.3672 78.5703 16.3672H75.9551V29.3926C75.9551 31.3223 76.6152 32.1348 78.2148 32.2617L78.6973 32.3125C80.5254 32.5156 81.5156 33.2773 81.5156 35.0039C81.5156 37.1875 79.3828 38.3047 76.2598 38.3047H76.0059C71.0547 38.3047 68.541 35.8418 68.541 31.043ZM97.1562 38.584C88.6504 38.584 83.6484 33.3281 83.6484 24.5176C83.6484 15.7578 88.752 10.1973 96.8008 10.1973C104.52 10.1973 109.699 15.4785 109.699 22.8672C109.699 24.9238 108.531 26.0918 106.475 26.0918H90.9355V26.4219C90.9355 30.459 93.373 33.0996 97.1309 33.0996C99.8477 33.0996 101.625 32.1855 103.631 29.8242C104.418 29.0117 105.078 28.7324 106.043 28.7324C107.643 28.7324 108.938 29.748 108.938 31.4492C108.938 32.0332 108.76 32.6426 108.43 33.252C106.627 36.6035 102.412 38.584 97.1562 38.584ZM91.0117 21.5469H102.564C102.412 17.9922 100.127 15.6816 96.877 15.6816C93.627 15.6816 91.2656 18.0684 91.0117 21.5469ZM117.316 26.3457C115.311 26.3457 113.812 25.1523 113.812 23.0957C113.812 21.0391 115.311 19.8711 117.316 19.8711H127.904C129.91 19.8711 131.408 21.0391 131.408 23.0957C131.408 25.1523 129.91 26.3457 127.904 26.3457H117.316ZM140.422 38.5332C138.264 38.5332 136.715 37.2129 136.715 34.6738V4.6875C136.715 2.14844 138.264 0.802734 140.422 0.802734C142.605 0.802734 144.129 2.14844 144.129 4.6875V34.6738C144.129 37.2129 142.605 38.5332 140.422 38.5332ZM157.18 38.4316C152 38.4316 148.064 35.0801 148.064 30.1797C148.064 25.2285 151.873 22.3594 158.678 21.9531L165.533 21.5469V19.7441C165.533 17.2051 163.756 15.7324 160.963 15.7324C158.703 15.7324 157.332 16.4688 155.682 18.6016C154.869 19.5156 153.93 19.9727 152.736 19.9727C150.934 19.9727 149.639 18.8047 149.639 17.1289C149.639 16.5449 149.766 16.0117 150.02 15.4531C151.289 12.2031 155.656 10.1973 161.293 10.1973C168.275 10.1973 172.82 13.8027 172.82 19.2871V34.8008C172.82 37.2637 171.322 38.5332 169.215 38.5332C167.209 38.5332 165.812 37.416 165.66 35.2324V33.8359H165.508C163.984 36.7305 160.582 38.4316 157.18 38.4316ZM159.617 33.0742C162.867 33.0742 165.533 30.9668 165.533 28.0215V26.041L159.795 26.3965C157.027 26.5996 155.453 27.8438 155.453 29.7734C155.453 31.8047 157.129 33.0742 159.617 33.0742ZM188.715 38.584C182.469 38.584 178.305 36.3496 177.01 33.1504C176.832 32.668 176.73 32.1855 176.73 31.7793C176.73 30.0781 178 28.9355 179.727 28.9355C180.92 28.9355 181.936 29.4688 182.951 30.6113C184.398 32.5156 186.074 33.3789 188.893 33.3789C191.584 33.3789 193.336 32.2617 193.336 30.459C193.336 28.9863 192.396 28.1992 189.73 27.6152L185.16 26.6504C179.828 25.5078 177.137 22.791 177.137 18.7539C177.137 13.5488 181.631 10.1973 188.689 10.1973C194.326 10.1973 198.465 12.7617 199.354 15.834C199.455 16.2148 199.531 16.5703 199.531 16.9258C199.531 18.4238 198.592 19.4648 196.688 19.4648C195.723 19.4648 194.656 19.1094 193.996 18.3223C192.701 16.6719 191.229 15.4023 188.562 15.4023C186.049 15.4023 184.297 16.5957 184.297 18.3477C184.297 19.7695 185.363 20.709 188.08 21.293L192.574 22.2578C198.363 23.4766 200.75 25.6094 200.75 29.6719C200.75 35.0801 195.9 38.584 188.715 38.584ZM215.527 38.584C209.281 38.584 205.117 36.3496 203.822 33.1504C203.645 32.668 203.543 32.1855 203.543 31.7793C203.543 30.0781 204.812 28.9355 206.539 28.9355C207.732 28.9355 208.748 29.4688 209.764 30.6113C211.211 32.5156 212.887 33.3789 215.705 33.3789C218.396 33.3789 220.148 32.2617 220.148 30.459C220.148 28.9863 219.209 28.1992 216.543 27.6152L211.973 26.6504C206.641 25.5078 203.949 22.791 203.949 18.7539C203.949 13.5488 208.443 10.1973 215.502 10.1973C221.139 10.1973 225.277 12.7617 226.166 15.834C226.268 16.2148 226.344 16.5703 226.344 16.9258C226.344 18.4238 225.404 19.4648 223.5 19.4648C222.535 19.4648 221.469 19.1094 220.809 18.3223C219.514 16.6719 218.041 15.4023 215.375 15.4023C212.861 15.4023 211.109 16.5957 211.109 18.3477C211.109 19.7695 212.176 20.709 214.893 21.293L219.387 22.2578C225.176 23.4766 227.562 25.6094 227.562 29.6719C227.562 35.0801 222.713 38.584 215.527 38.584Z" fill="#4849FF"/>
</svg>
