<svg width="400" height="56" viewBox="0 0 400 56" fill="none" xmlns="http://www.w3.org/2000/svg">
<rect width="400" height="56" rx="8" fill="#4849FF"/>
<path d="M149.852 32.2188V33.8594H136.836V32.2188H142.32V30.0781H138.336V25.2969H146.383V23.7344H138.32V22.1406H148.352V26.8594H140.336V28.4531H148.68V30.0781H144.305V32.2188H149.852ZM162.039 22.5312V24.2344C162.031 26.1875 162.031 28.1172 161.523 31.0625L159.508 30.8906C160.047 28.1562 160.047 26.125 160.055 24.2344V24.125H152.008V22.5312H162.039ZM150.664 33.5781V31.9375H163.633V33.5781H150.664ZM176.398 21.2344V31.4531H174.398V21.2344H176.398ZM164.711 25.7188C164.711 23.6328 166.414 22.1328 168.602 22.1406C170.781 22.1328 172.484 23.6328 172.492 25.7188C172.484 27.8359 170.781 29.3281 168.602 29.3281C166.414 29.3281 164.711 27.8359 164.711 25.7188ZM166.664 25.7188C166.648 26.9062 167.484 27.5938 168.602 27.5938C169.68 27.5938 170.516 26.9062 170.523 25.7188C170.516 24.5625 169.68 23.8672 168.602 23.875C167.484 23.8672 166.648 24.5625 166.664 25.7188ZM166.867 35.1875V30.4219H168.883V33.5938H176.773V35.1875H166.867ZM193.227 21.2188V26.7812H195.32V28.4219H193.227V35.4375H191.258V21.2188H193.227ZM181.93 24.9375V23.3438H185.148V21.4375H187.148V23.3438H190.289V24.9375H181.93ZM182.508 29.125C182.5 27.1406 184.047 25.7266 186.148 25.7344C188.219 25.7266 189.773 27.1406 189.773 29.125C189.773 31.1094 188.219 32.5078 186.148 32.5156C184.047 32.5078 182.5 31.1094 182.508 29.125ZM184.414 29.125C184.414 30.2266 185.141 30.8828 186.148 30.875C187.141 30.8828 187.867 30.2266 187.867 29.125C187.867 28.0312 187.141 27.3594 186.148 27.3438C185.141 27.3594 184.414 28.0312 184.414 29.125ZM207.82 21.2188V35.4688H205.836V27.9688H203.539V26.3438H205.836V21.2188H207.82ZM196.305 24.0156V22.4062H202.742V27.7344H198.32V30.5156C200.281 30.5 201.938 30.4297 203.773 30.1094L203.93 31.7344C201.82 32.0859 199.891 32.1641 197.508 32.1562H196.336V26.1562H200.805V24.0156H196.305ZM224.57 21.2188V26.6719H226.586V28.3125H224.57V35.4062H222.57V21.2188H224.57ZM213.195 31.4219C216.562 29.7344 218.375 27.4688 218.75 24.2969H214.008V22.6719H220.773C220.758 26.9219 219.102 30.6016 214.32 32.9531L213.195 31.4219ZM239.133 21.2188V35.4375H237.117V21.2188H239.133ZM227.227 31.4062C230.898 29.6719 232.516 27.4219 232.836 24.2656H227.992V22.7031H234.867C234.859 27.0156 233.352 30.6016 228.273 33L227.227 31.4062Z" fill="white"/>
<path fill-rule="evenodd" clip-rule="evenodd" d="M252.806 34.8648C252.62 34.6846 252.62 34.3923 252.806 34.2121L258.183 29L252.806 23.7879C252.62 23.6077 252.62 23.3154 252.806 23.1352C252.992 22.9549 253.293 22.9549 253.479 23.1352L259.194 28.6736C259.379 28.8539 259.379 29.1461 259.194 29.3264L253.479 34.8648C253.293 35.0451 252.992 35.0451 252.806 34.8648Z" fill="white" stroke="white" stroke-width="0.25" stroke-linecap="round" stroke-linejoin="round"/>
</svg>
