<svg width="625" height="44" viewBox="0 0 625 44" fill="none" xmlns="http://www.w3.org/2000/svg">
<path d="M29.1719 5.0625V39H23.0781L8.17188 17.4375H7.89062V39H0.859375V5.0625H7.04688L21.8594 26.625H22.1875V5.0625H29.1719ZM46.1875 39.5156C38.5 39.4922 33.6953 34.2188 33.7188 26.3438C33.6953 18.4922 38.5 13.2188 46.1875 13.2188C53.8984 13.2188 58.6797 18.4922 58.7031 26.3438C58.6797 34.2188 53.8984 39.4922 46.1875 39.5156ZM40.75 26.3438C40.75 30.7969 42.6016 34.1016 46.2344 34.125C49.7734 34.1016 51.6484 30.7969 51.625 26.3438C51.6484 21.8672 49.7734 18.5156 46.2344 18.5156C42.6016 18.5156 40.75 21.8672 40.75 26.3438ZM76.4688 13.5469V18.75H71.6875V31.1719C71.6641 33.2109 72.6719 33.7031 74.0781 33.75C74.7812 33.75 76 33.6797 76.8438 33.6094V39.0938C76.0938 39.2109 74.8516 39.3516 73.1406 39.3281C68.125 39.3516 64.7031 37.1016 64.75 32.1562V18.75H61.2344V13.5469H64.75V7.45312H71.6875V13.5469H76.4688ZM92.0781 39.5156C84.2734 39.4922 79.4922 34.4531 79.5156 26.3906C79.4922 18.5391 84.3438 13.2188 91.7969 13.2188C98.4766 13.2188 103.75 17.4375 103.75 26.1094V28.0781H86.3594C86.3594 31.9219 88.6328 34.2891 92.2188 34.3125C94.5859 34.2891 96.2734 33.2578 96.9531 31.7344H103.562C102.578 36.4453 98.3594 39.4922 92.0781 39.5156ZM86.3594 23.7188H97.1875C97.1641 20.625 95.0312 18.3984 91.9375 18.4219C88.75 18.3984 86.5 20.7891 86.3594 23.7188ZM123.906 22.2656V27.7969H108.438V22.2656H123.906ZM136.609 5.0625V39H129.672V5.0625H136.609ZM140.781 31.875C140.805 26.2031 145.352 24.3516 150.25 24.0469C152.078 23.9297 155.5 23.7656 156.578 23.7188V21.6562C156.555 19.5234 155.102 18.3047 152.5 18.2812C150.133 18.3047 148.656 19.3594 148.281 21.0938H141.672C142.094 16.6875 145.938 13.2188 152.688 13.2188C158.242 13.2188 163.492 15.7031 163.469 21.8438V39H156.906V35.4844H156.719C155.477 37.8281 153.039 39.4922 149.266 39.4688C144.391 39.4922 140.805 36.9141 140.781 31.875ZM147.438 31.6875C147.438 33.6328 149.008 34.6641 151.234 34.6875C154.398 34.6641 156.602 32.6016 156.578 29.9062V28.0547C155.523 28.1016 152.547 28.2656 151.375 28.3594C148.961 28.5703 147.438 29.7188 147.438 31.6875ZM183.297 21.0938C182.992 19.3125 181.445 18.1641 179.125 18.1406C176.875 18.1641 175.164 19.2188 175.188 20.7656C175.164 21.9141 176.055 22.8047 178.469 23.2969L183.016 24.2344C187.961 25.2656 190.352 27.4688 190.375 31.125C190.352 36.1406 185.852 39.4922 179.078 39.5156C172.211 39.4922 168.18 36.4219 167.594 31.4531H174.578C174.906 33.4453 176.523 34.4766 179.078 34.5C181.609 34.4766 183.297 33.4688 183.297 31.8281C183.297 30.5156 182.219 29.6953 179.828 29.2031L175.609 28.3594C170.758 27.3984 168.273 24.9141 168.297 21.1406C168.273 16.2656 172.469 13.2188 179.031 13.2188C185.453 13.2188 189.438 16.2656 189.812 21.0938H183.297ZM209.172 21.0938C208.867 19.3125 207.32 18.1641 205 18.1406C202.75 18.1641 201.039 19.2188 201.062 20.7656C201.039 21.9141 201.93 22.8047 204.344 23.2969L208.891 24.2344C213.836 25.2656 216.227 27.4688 216.25 31.125C216.227 36.1406 211.727 39.4922 204.953 39.5156C198.086 39.4922 194.055 36.4219 193.469 31.4531H200.453C200.781 33.4453 202.398 34.4766 204.953 34.5C207.484 34.4766 209.172 33.4688 209.172 31.8281C209.172 30.5156 208.094 29.6953 205.703 29.2031L201.484 28.3594C196.633 27.3984 194.148 24.9141 194.172 21.1406C194.148 16.2656 198.344 13.2188 204.906 13.2188C211.328 13.2188 215.312 16.2656 215.688 21.0938H209.172ZM256.047 0.65625V43.3125H250.328V0.65625H256.047ZM219.438 19.125C219.438 9.58594 223.07 3.67969 228.719 3.70312C233.852 3.67969 237.367 8.48438 238.023 16.4531H241.516V1.26562H247.141V41.3438H241.516V21.1875H238.07C237.555 29.5547 233.969 34.6406 228.719 34.6406C223.07 34.6406 219.438 28.7109 219.438 19.125ZM224.969 19.125C224.922 25.6875 226.328 28.9219 228.719 28.875C231.18 28.9219 232.633 25.6875 232.609 19.125C232.633 12.5859 231.18 9.32812 228.719 9.32812C226.328 9.32812 224.922 12.5859 224.969 19.125ZM291.062 2.85938C300.227 2.85938 307.117 7.5 307.141 14.5312C307.117 20.9766 301.68 25.2891 294.016 26.1328V33.4219H310.656V38.3438H271.609V33.4219H288.062V26.1328C280.445 25.2656 275.031 20.9531 275.031 14.5312C275.031 7.5 281.898 2.85938 291.062 2.85938ZM280.938 14.5312C280.938 19.0312 285.086 21.5391 291.062 21.5625C297.062 21.5391 301.211 19.0312 301.234 14.5312C301.211 10.2656 297.062 7.61719 291.062 7.64062C285.086 7.61719 280.938 10.2656 280.938 14.5312ZM348.812 0.703125V31.8281H342.812V0.703125H348.812ZM312.953 21.2812C320.102 18.8906 323.219 12.9609 323.219 7.17188V3.04688H329.453V7.17188C329.406 12.8203 332.43 18.3281 339.438 20.5781L336.391 25.2656C331.562 23.6719 328.258 20.4844 326.359 16.4297C324.438 20.7891 321.039 24.3047 316.047 26.0156L312.953 21.2812ZM320.219 42.5625V28.8281H326.266V37.7812H349.938V42.5625H320.219ZM390.531 0.65625V22.0312H384.578V14.5781H376.891V9.75H384.578V0.65625H390.531ZM355.141 18.4219C364.469 16.3594 369.086 12.1875 369.953 7.03125H357.484V2.20312H376.375C376.398 13.3359 369.695 20.1797 357.109 23.1562L355.141 18.4219ZM362.172 28.3594V23.6719H390.531V35.3438H368.219V38.1562H391.469V42.8906H362.219V30.9375H384.531V28.3594H362.172ZM441.25 0.65625V14.6719H446.688V19.5938H441.25V33.9375H435.25V0.65625H441.25ZM406.656 25.1719C409.727 25.1719 413.289 25.1484 417.016 25.0312V22.5703C412.375 21.9141 409.492 19.6172 409.516 16.2656C409.492 12.0469 413.641 9.58594 419.969 9.60938C426.25 9.58594 430.398 12.0469 430.422 16.2656C430.398 19.5938 427.539 21.8906 422.969 22.5703V24.75C426.461 24.5391 429.977 24.2109 433.281 23.7188L433.703 27.8438C424.727 29.5781 414.625 29.6953 407.266 29.7656L406.656 25.1719ZM407.781 8.39062V4.125H417.016V0.515625H422.969V4.125H432.203V8.39062H407.781ZM412.656 42.5625V31.7344H418.656V37.7812H442.703V42.5625H412.656ZM415.234 16.2656C415.211 17.8594 416.922 18.7734 419.969 18.75C422.969 18.7734 424.68 17.8594 424.703 16.2656C424.68 14.4609 422.969 13.5938 419.969 13.5938C416.922 13.5938 415.211 14.4609 415.234 16.2656ZM460.516 2.95312C463.914 2.92969 466.891 4.19531 468.93 6.28125H478.609V0.65625H484.562V25.6406H478.609V20.5312H468.883C466.844 22.5938 463.891 23.8359 460.516 23.8125C454.047 23.8359 449.125 19.4297 449.172 13.4062C449.125 7.3125 454.047 2.92969 460.516 2.95312ZM454.844 13.4062C454.82 16.6875 457.188 18.7734 460.516 18.75C463.727 18.7734 466.07 16.6875 466.094 13.4062C466.07 10.0078 463.727 8.03906 460.516 8.0625C457.188 8.03906 454.82 10.0078 454.844 13.4062ZM455.312 34.9219C455.312 29.625 460.961 26.5078 469.984 26.5312C479.008 26.5078 484.68 29.625 484.703 34.9219C484.68 40.2188 479.008 43.3359 469.984 43.3125C460.961 43.3359 455.312 40.2188 455.312 34.9219ZM461.172 34.9219C461.172 37.4062 464.336 38.6719 469.984 38.6719C475.75 38.6719 478.82 37.4062 478.844 34.9219C478.82 32.3672 475.75 31.1016 469.984 31.0781C464.336 31.1016 461.172 32.3672 461.172 34.9219ZM471.484 11.0156C471.672 11.7656 471.766 12.5859 471.766 13.4062C471.766 14.2266 471.672 15 471.508 15.75H478.609V11.0156H471.484ZM523.938 0.65625V10.9219H529.703V15.8906H523.938V25.6406H517.938V0.65625H523.938ZM490.094 9.09375V4.40625H499.797V0.375H505.75V4.40625H515.406V9.09375H490.094ZM492.156 17.8594C492.156 13.3125 496.469 10.3125 502.75 10.3125C508.961 10.3125 513.25 13.3125 513.25 17.8594C513.25 22.4062 508.961 25.4062 502.75 25.4062C496.469 25.4062 492.156 22.4062 492.156 17.8594ZM496 42.8438V27.2812H501.953V30.5156H517.938V27.2812H523.938V42.8438H496ZM498.016 17.8594C497.992 19.9219 499.891 21.0234 502.75 21.0469C505.633 21.0234 507.578 19.9219 507.578 17.8594C507.578 15.8672 505.633 14.6719 502.75 14.7188C499.891 14.6719 497.992 15.8672 498.016 17.8594ZM501.953 38.1562H517.938V35.1094H501.953V38.1562ZM567.438 0.65625V43.3125H561.484V0.65625H567.438ZM533.875 32.7656V4.73438H539.781V27.6797C545.547 27.5859 551.734 27.0469 558.016 25.8281L558.766 30.75C551.289 32.3203 544.211 32.7891 537.625 32.7656H533.875ZM606.719 0.65625V16.5H613V21.375H606.719V43.4062H600.719V0.65625H606.719ZM574.75 33.0469V4.59375H594.766V9.42188H580.703V28.125C586.891 28.0781 592 27.75 597.672 26.7656L598.328 31.7812C591.695 32.9062 585.883 33.0703 578.359 33.0469H574.75ZM624.25 5.0625L623.641 28.8281H617.641L617.031 5.0625H624.25ZM616.75 35.4844C616.703 33.3281 618.484 31.5703 620.688 31.5938C622.773 31.5703 624.578 33.3281 624.578 35.4844C624.578 37.6641 622.773 39.4219 620.688 39.4219C618.484 39.4219 616.703 37.6641 616.75 35.4844Z" fill="#4849FF"/>
</svg>
